{
    "asset" : {
        "generator" : "Khronos glTF Blender I/O v1.3.48",
        "version" : "2.0"
    },
    "scene" : 0,
    "scenes" : [
        {
            "name" : "Scene",
            "nodes" : [
                0,
                1
            ]
        }
    ],
    "nodes" : [
        {
            "mesh" : 0,
            "name" : "Cylinder.000",
            "scale" : [
                0.34475642442703247,
                0.29565417766571045,
                0.34475642442703247
            ],
            "translation" : [
                2.4957637786865234,
                1.5061039924621582,
                -0.538331151008606
            ]
        },
        {
            "mesh" : 1,
            "name" : "Stub",
            "scale" : [
                0.3499999940395355,
                0.6000000238418579,
                0.3499999940395355
            ],
            "translation" : [
                2.499502420425415,
                0.6166481971740723,
                -0.5383312702178955
            ]
        }
    ],
    "materials" : [
        {
            "doubleSided" : true,
            "emissiveFactor" : [
                0.32989123463630676,
                0.32989123463630676,
                0.32989123463630676
            ],
            "name" : "coble_stone",
            "pbrMetallicRoughness" : {
                "baseColorFactor" : [
                    1,
                    0.16880185902118683,
                    0.6874630451202393,
                    1
                ],
                "metallicFactor" : 1,
                "roughnessFactor" : 1
            }
        }
    ],
    "meshes" : [
        {
            "name" : "Cylinder.002",
            "primitives" : [
                {
                    "attributes" : {
                        "POSITION" : 0,
                        "NORMAL" : 1,
                        "TEXCOORD_0" : 2
                    },
                    "indices" : 3,
                    "material" : 0
                }
            ]
        },
        {
            "name" : "Cube.001",
            "primitives" : [
                {
                    "attributes" : {
                        "POSITION" : 4,
                        "NORMAL" : 5,
                        "TEXCOORD_0" : 6
                    },
                    "indices" : 7,
                    "material" : 0
                }
            ]
        }
    ],
    "accessors" : [
        {
            "bufferView" : 0,
            "componentType" : 5126,
            "count" : 795,
            "max" : [
                1,
                1.0850045680999756,
                1
            ],
            "min" : [
                -1,
                -1,
                -1
            ],
            "type" : "VEC3"
        },
        {
            "bufferView" : 1,
            "componentType" : 5126,
            "count" : 795,
            "type" : "VEC3"
        },
        {
            "bufferView" : 2,
            "componentType" : 5126,
            "count" : 795,
            "type" : "VEC2"
        },
        {
            "bufferView" : 3,
            "componentType" : 5123,
            "count" : 2484,
            "type" : "SCALAR"
        },
        {
            "bufferView" : 4,
            "componentType" : 5126,
            "count" : 136,
            "max" : [
                1,
                1,
                1
            ],
            "min" : [
                -1,
                -1,
                -1
            ],
            "type" : "VEC3"
        },
        {
            "bufferView" : 5,
            "componentType" : 5126,
            "count" : 136,
            "type" : "VEC3"
        },
        {
            "bufferView" : 6,
            "componentType" : 5126,
            "count" : 136,
            "type" : "VEC2"
        },
        {
            "bufferView" : 7,
            "componentType" : 5123,
            "count" : 156,
            "type" : "SCALAR"
        }
    ],
    "bufferViews" : [
        {
            "buffer" : 0,
            "byteLength" : 9540,
            "byteOffset" : 0
        },
        {
            "buffer" : 0,
            "byteLength" : 9540,
            "byteOffset" : 9540
        },
        {
            "buffer" : 0,
            "byteLength" : 6360,
            "byteOffset" : 19080
        },
        {
            "buffer" : 0,
            "byteLength" : 4968,
            "byteOffset" : 25440
        },
        {
            "buffer" : 0,
            "byteLength" : 1632,
            "byteOffset" : 30408
        },
        {
            "buffer" : 0,
            "byteLength" : 1632,
            "byteOffset" : 32040
        },
        {
            "buffer" : 0,
            "byteLength" : 1088,
            "byteOffset" : 33672
        },
        {
            "buffer" : 0,
            "byteLength" : 312,
            "byteOffset" : 34760
        }
    ],
    "buffers" : [
        {
            "byteLength" : 35072,
            "uri" : "data:application/octet-stream;base64,"
        }
    ]
}
