{
    "asset" : {
        "generator" : "Khronos glTF Blender I/O v1.3.48",
        "version" : "2.0"
    },
    "scene" : 0,
    "scenes" : [
        {
            "name" : "Scene",
            "nodes" : [
                0
            ]
        }
    ],
    "nodes" : [
        {
            "mesh" : 0,
            "name" : "Fish_Gun",
            "translation" : [
                0,
                1.016802191734314,
                0
            ]
        }
    ],
    "materials" : [
        {
            "doubleSided" : true,
            "emissiveFactor" : [
                0.08984119445085526,
                0.08984119445085526,
                0.08984119445085526
            ],
            "name" : "Material",
            "pbrMetallicRoughness" : {
                "baseColorFactor" : [
                    0.3981682062149048,
                    0.3536917567253113,
                    0.5542999505996704,
                    1
                ],
                "metallicFactor" : 0,
                "roughnessFactor" : 0.4000000059604645
            }
        }
    ],
    "meshes" : [
        {
            "name" : "Cube.014",
            "primitives" : [
                {
                    "attributes" : {
                        "POSITION" : 0,
                        "NORMAL" : 1,
                        "TEXCOORD_0" : 2
                    },
                    "indices" : 3,
                    "material" : 0
                }
            ]
        }
    ],
    "accessors" : [
        {
            "bufferView" : 0,
            "componentType" : 5126,
            "count" : 32264,
            "max" : [
                0.8620947599411011,
                0.6960776448249817,
                0.3784293234348297
            ],
            "min" : [
                -2.2784407138824463,
                -1.0364933013916016,
                -0.37856507301330566
            ],
            "type" : "VEC3"
        },
        {
            "bufferView" : 1,
            "componentType" : 5126,
            "count" : 32264,
            "type" : "VEC3"
        },
        {
            "bufferView" : 2,
            "componentType" : 5126,
            "count" : 32264,
            "type" : "VEC2"
        },
        {
            "bufferView" : 3,
            "componentType" : 5123,
            "count" : 158382,
            "type" : "SCALAR"
        }
    ],
    "bufferViews" : [
        {
            "buffer" : 0,
            "byteLength" : 387168,
            "byteOffset" : 0
        },
        {
            "buffer" : 0,
            "byteLength" : 387168,
            "byteOffset" : 387168
        },
        {
            "buffer" : 0,
            "byteLength" : 258112,
            "byteOffset" : 774336
        },
        {
            "buffer" : 0,
            "byteLength" : 316764,
            "byteOffset" : 1032448
        }
    ],
    "buffers" : [
        {
            "byteLength" : 1349212,
            "uri" : "data:application/octet-stream;base64,"
        }
    ]
}
